<svg width="122" height="163" viewBox="0 0 122 163" fill="none" xmlns="http://www.w3.org/2000/svg">  <path    d="M115.216 34.6C120.586 33.91 122.656 29.41 120.236 24.39L108.126 0C24.376 7.78 -9.01402 35.82 2.05598 62.29L12.436 86.34C16.416 69.9 34.236 45.5 103.626 36.16L115.216 34.6Z"    fill="#fff" />  <path    d="M21.086 106.41C13.646 89.28 30.256 57.61 106.566 47.23L117.806 72.67C120.236 78.2 116.946 82.53 110.716 83.74C62.966 92.74 32.336 109.7 32.336 132.54L21.086 106.41Z"    fill="#fff" />  <path    d="M40.986 138.07C40.986 133.23 43.756 127.69 47.736 123.71C50.506 131.15 56.906 138.08 78.366 136.68L91.516 162.64C55.696 161.95 40.986 152.43 40.986 138.07Z"    fill="#fff" /></svg>