<svg width="734" height="166" viewBox="0 0 734 166" fill="none" xmlns="http://www.w3.org/2000/svg">  <path    d="M120.236 24.39C122.656 29.41 120.586 33.91 115.216 34.6L103.626 36.16C34.236 45.5 16.416 69.9 12.436 86.34L2.05598 62.29C-9.01402 35.82 24.376 7.78 108.126 0L120.236 24.39ZM106.566 47.23C30.256 57.61 13.646 89.28 21.086 106.41L32.336 132.54C32.336 109.7 62.966 92.74 110.716 83.74C116.946 82.53 120.236 78.2 117.806 72.67L106.566 47.23ZM47.736 123.71C43.756 127.69 40.986 133.23 40.986 138.07C40.986 152.43 55.696 161.95 91.516 162.64L78.366 136.68C56.906 138.08 50.506 131.15 47.736 123.71ZM607.716 110.68C598.546 108.81 591.416 107.28 591.416 101.51C591.416 96.25 597.016 93.53 608.226 93.53C615.526 93.53 621.986 94.72 628.266 96.76L632.856 79.1C627.256 77.06 619.266 75.02 608.226 75.02C585.806 75.02 570.866 86.23 570.866 102.87C570.866 121.38 586.996 125.12 599.906 128C609.076 130.04 616.886 131.74 616.886 137.85C616.886 144.64 609.416 146.85 600.586 146.85C591.756 146.85 585.306 144.13 579.356 137.68L566.956 152.96C575.276 161.11 586.826 165.19 599.906 165.19C622.156 165.19 637.606 153.47 637.606 136.83C637.606 117.13 620.956 113.57 607.716 110.68ZM733.896 83.68V162.65H715.556V155.35C709.276 161.12 700.446 165.2 689.236 165.2C665.286 165.2 647.966 147.37 647.966 122.57C647.966 93.7 667.496 75.02 697.726 75.02C711.136 75.02 723.196 77.9 733.896 83.68ZM713.856 96.41C709.096 94.54 703.156 93.52 696.706 93.52C679.216 93.52 668.856 103.71 668.856 121.03C668.856 137.33 678.876 147.52 695.346 147.52C702.646 147.52 709.106 145.65 713.856 142.43V96.41ZM520.926 75.02C510.906 75.02 502.076 77.91 495.796 83.51V44.28H475.756V162.65H495.796V98.28C502.416 94.88 508.536 93.35 515.156 93.35C526.536 93.35 533.326 98.78 533.326 107.79V162.64H553.366V107.28C553.366 87.07 541.306 75.02 520.926 75.02ZM458.946 120.19C458.946 146 438.906 165.36 412.246 165.36C385.586 165.36 365.546 146 365.546 120.19C365.546 94.38 385.756 75.02 412.246 75.02C438.736 75.02 458.946 94.38 458.946 120.19ZM438.056 120.19C438.056 102.53 425.146 93.36 412.246 93.36C399.346 93.36 386.606 102.53 386.606 120.19C386.606 137.85 399.516 146.85 412.246 146.85C424.976 146.85 438.056 137.68 438.056 120.19ZM329.876 146.68C316.966 146.68 303.216 138.36 303.216 120.02C303.216 104.57 314.256 93.7 330.046 93.7C339.046 93.7 344.486 97.27 348.386 100.66L360.106 86.39C355.016 80.45 343.296 75.01 329.706 75.01C302.196 75.01 282.156 94.2 282.156 120.69C282.156 147.18 301.006 165.36 327.836 165.36C342.106 165.36 354.836 160.1 361.636 151.94L349.746 138.69C344.136 144.31 337.686 146.68 329.876 146.68ZM245.976 162.65H266.016V77.74H245.976V162.65ZM255.996 44.28C249.206 44.28 243.766 49.71 243.766 56.51C243.766 63.31 249.196 68.74 255.996 68.74C262.796 68.74 268.226 63.31 268.226 56.51C268.226 49.71 262.786 44.28 255.996 44.28ZM154.096 162.65H176.006V117.14H228.146V98.12H176.006V66.02H231.366V47.17H154.096V162.65Z"  fill="#FFFFFF" /></svg>